/* XPM */
static const char * lt_crv_on_xpm[] = {
"5 21 86 1",
" 	c None",
".	c #40509D",
"+	c #5575B4",
"@	c #8AAFD6",
"#	c #426EB4",
"$	c #8AB5DA",
"%	c #C2D9EC",
"&	c #598CC7",
"*	c #5591CA",
"=	c #9EC5E2",
"-	c #B0D0E8",
";	c #3079C3",
">	c #4D99D3",
",	c #90BCDD",
"'	c #9AC3E1",
")	c #6498CD",
"!	c #338AD1",
"~	c #4A99D5",
"{	c #79B0D9",
"]	c #82B5DA",
"^	c #3C81C5",
"/	c #308ED5",
"(	c #3E97D6",
"_	c #5BA2D4",
":	c #6BA9D2",
"<	c #3B7FC4",
"[	c #3192D9",
"}	c #3896D8",
"|	c #429AD7",
"1	c #53A1D6",
"2	c #4285C7",
"3	c #3394DA",
"4	c #3497DA",
"5	c #3498DB",
"6	c #3E9DDA",
"7	c #4087C8",
"8	c #3296DA",
"9	c #3398D8",
"0	c #3498D8",
"a	c #359ADB",
"b	c #3C86C9",
"c	c #3698DA",
"d	c #3699DA",
"e	c #3598D6",
"f	c #3D86C9",
"g	c #3798DA",
"h	c #369BDA",
"i	c #3698D6",
"j	c #3899D5",
"k	c #3D84C6",
"l	c #3899DA",
"m	c #369CDA",
"n	c #3899D6",
"o	c #3B9BD6",
"p	c #3C80C3",
"q	c #3393D7",
"r	c #3799D8",
"s	c #3D9CD6",
"t	c #419DD7",
"u	c #4C86C1",
"v	c #338ACD",
"w	c #3796D5",
"x	c #429CD6",
"y	c #4DA3D9",
"z	c #6D97BD",
"A	c #3386C7",
"B	c #3893D4",
"C	c #4A9FD7",
"D	c #5AA9DB",
"E	c #3B76B1",
"F	c #3691D3",
"G	c #54A4DA",
"H	c #68B2E0",
"I	c #698DAC",
"J	c #3484CA",
"K	c #5AA8DB",
"L	c #76BBE2",
"M	c #99B1C4",
"N	c #3F76B4",
"O	c #5EA5DB",
"P	c #7DC4E8",
"Q	c #809EB5",
"R	c #6D99C6",
"S	c #82C3E5",
"T	c #7895B1",
"U	c #364D98",
"    .",
"   +@",
"  #$%",
" &*=-",
" ;>,'",
")!~{]",
"^/(_:",
"<[}|1",
"23456",
"7890a",
"bcdee",
"fghij",
"klmno",
"pqrst",
"uvwxy",
"zABCD",
" EFGH",
" IJKL",
" MNOP",
"  QRS",
"   TU"};
