/* XPM */
static const char * lt_crv_off_xpm[] = {
"5 21 42 1",
" 	c None",
".	c #5A5A5A",
"+	c #E8E8E8",
"@	c #EAEAEA",
"#	c #FAFAFA",
"$	c #D1D1D1",
"%	c #F2F2F2",
"&	c #F6F6F6",
"*	c #BCBCBC",
"=	c #D2D2D2",
"-	c #ECECEC",
";	c #F0F0F0",
">	c #C5C5C5",
",	c #E4E4E4",
"'	c #E7E7E7",
")	c #717171",
"!	c #C6C6C6",
"~	c #CDCDCD",
"{	c #D8D8D8",
"]	c #DDDDDD",
"^	c #6E6E6E",
"/	c #C7C7C7",
"(	c #CCCCCC",
"_	c #CFCFCF",
":	c #D6D6D6",
"<	c #787878",
"[	c #CACACA",
"}	c #CBCBCB",
"|	c #C9C9C9",
"1	c #767676",
"2	c #737373",
"3	c #6C6C6C",
"4	c #C3C3C3",
"5	c #D5D5D5",
"6	c #C1C1C1",
"7	c #DBDBDB",
"8	c #B9B9B9",
"9	c #D7D7D7",
"0	c #E1E1E1",
"a	c #C2C2C2",
"b	c #DCDCDC",
"c	c #D9D9D9",
"    .",
"   .+",
"  .@#",
" .$%&",
".*=-;",
".>$,'",
")!~{]",
"^/(_:",
"<[}}_",
"<||[(",
"1((||",
"<((|[",
"2((}(",
"3/}(_",
".4|_5",
".6|=7",
".8/90",
".~a7'",
" .*b@",
"  .c@",
"   .."};
