/* XPM */
static const char * lt_sep_on_xpm[] = {
"3 21 42 1",
" 	c None",
".	c #00006E",
"+	c #00006D",
"@	c #C6CBDA",
"#	c #E9EDF8",
"$	c #A6BED4",
"%	c #CFE1F3",
"&	c #8BACCF",
"*	c #BBD5F0",
"=	c #7EA5CE",
"-	c #AFCEEE",
";	c #739ECA",
">	c #A8CAEE",
",	c #6D9BCB",
"'	c #A2C7ED",
")	c #6696CB",
"!	c #9EC5EF",
"~	c #6699CE",
"{	c #9EC7F0",
"]	c #307ACE",
"^	c #70ADEF",
"/	c #3F86D5",
"(	c #7BB5F5",
"_	c #438CDA",
":	c #83BCF9",
"<	c #5499E2",
"[	c #8BC3FF",
"}	c #569BE2",
"|	c #93C9FF",
"1	c #64A8E2",
"2	c #9AD1FF",
"3	c #6DAFE2",
"4	c #A0D6FF",
"5	c #75B8E2",
"6	c #A8DEFF",
"7	c #7CBEE2",
"8	c #ADE2FF",
"9	c #88CFE2",
"0	c #B6ECFF",
"a	c #90DFE2",
"b	c #C1FEFF",
"c	c #585858",
".++",
"@##",
"$%%",
"&**",
"=--",
";>>",
",''",
")!!",
"~{{",
"]^^",
"/((",
"_::",
"<[[",
"}||",
"122",
"344",
"566",
"788",
"900",
"abb",
"ccc"};
