/* XPM */
static const char * lt_sep_off_xpm[] = {
"3 21 29 1",
" 	c None",
".	c #8C8C8C",
"+	c #D3D3D3",
"@	c #FDFDFD",
"#	c #CFCFCF",
"$	c #F9F9F9",
"%	c #CCCCCC",
"&	c #F5F5F5",
"*	c #CBCBCB",
"=	c #F3F3F3",
"-	c #C9C9C9",
";	c #F2F2F2",
">	c #C8C8C8",
",	c #F1F1F1",
"'	c #C7C7C7",
")	c #F0F0F0",
"!	c #BEBEBE",
"~	c #E3E3E3",
"{	c #C1C1C1",
"]	c #E9E9E9",
"^	c #ECECEC",
"/	c #CDCDCD",
"(	c #F7F7F7",
"_	c #FAFAFA",
":	c #D2D2D2",
"<	c #FEFEFE",
"[	c #D4D4D4",
"}	c #FFFFFF",
"|	c #727272",
"...",
"+@@",
"#$$",
"%&&",
"*==",
"-;;",
">,,",
"'))",
">,,",
"!~~",
"{]]",
"'^^",
">,,",
"%==",
"/((",
"#__",
":<<",
"[}}",
"[}}",
"[}}",
"|||"};
