/* XPM */
static const char * rt_crv_off_xpm[] = {
"5 21 41 1",
" 	c None",
".	c #5A5A5A",
"+	c #FAFAFA",
"@	c #EAEAEA",
"#	c #F6F6F6",
"$	c #F2F2F2",
"%	c #D1D1D1",
"&	c #F0F0F0",
"*	c #ECECEC",
"=	c #D2D2D2",
"-	c #BCBCBC",
";	c #E7E7E7",
">	c #E4E4E4",
",	c #C5C5C5",
"'	c #DDDDDD",
")	c #D8D8D8",
"!	c #CDCDCD",
"~	c #C6C6C6",
"{	c #717171",
"]	c #D6D6D6",
"^	c #CFCFCF",
"/	c #CCCCCC",
"(	c #C7C7C7",
"_	c #6E6E6E",
":	c #CBCBCB",
"<	c #CACACA",
"[	c #787878",
"}	c #C9C9C9",
"|	c #767676",
"1	c #737373",
"2	c #6C6C6C",
"3	c #D5D5D5",
"4	c #C3C3C3",
"5	c #DBDBDB",
"6	c #C1C1C1",
"7	c #E1E1E1",
"8	c #D7D7D7",
"9	c #B9B9B9",
"0	c #C2C2C2",
"a	c #DCDCDC",
"b	c #D9D9D9",
".    ",
"+.   ",
"+@.  ",
"#$%. ",
"&*=-.",
";>%,.",
"')!~{",
"]^/(_",
"^::<[",
"/<}}[",
"}}//|",
"<}//[",
"/://1",
"^/:(2",
"3^}4.",
"5=}6.",
"78(9.",
";50!.",
"@a-. ",
"@b.  ",
"..   "};
