/* XPM */
static const char * rt_crv_on_xpm[] = {
"5 21 86 1",
" 	c None",
".	c #40509D",
"+	c #8AAFD6",
"@	c #5575B4",
"#	c #C2D9EC",
"$	c #8AB5DA",
"%	c #426EB4",
"&	c #B0D0E8",
"*	c #9EC5E2",
"=	c #5591CA",
"-	c #598CC7",
";	c #9AC3E1",
">	c #90BCDD",
",	c #4D99D3",
"'	c #3079C3",
")	c #82B5DA",
"!	c #79B0D9",
"~	c #4A99D5",
"{	c #338AD1",
"]	c #6498CD",
"^	c #6BA9D2",
"/	c #5BA2D4",
"(	c #3E97D6",
"_	c #308ED5",
":	c #3C81C5",
"<	c #53A1D6",
"[	c #429AD7",
"}	c #3896D8",
"|	c #3192D9",
"1	c #3B7FC4",
"2	c #3E9DDA",
"3	c #3498DB",
"4	c #3497DA",
"5	c #3394DA",
"6	c #4285C7",
"7	c #359ADB",
"8	c #3498D8",
"9	c #3398D8",
"0	c #3296DA",
"a	c #4087C8",
"b	c #3598D6",
"c	c #3699DA",
"d	c #3698DA",
"e	c #3C86C9",
"f	c #3899D5",
"g	c #3698D6",
"h	c #369BDA",
"i	c #3798DA",
"j	c #3D86C9",
"k	c #3B9BD6",
"l	c #3899D6",
"m	c #369CDA",
"n	c #3899DA",
"o	c #3D84C6",
"p	c #419DD7",
"q	c #3D9CD6",
"r	c #3799D8",
"s	c #3393D7",
"t	c #3C80C3",
"u	c #4DA3D9",
"v	c #429CD6",
"w	c #3796D5",
"x	c #338ACD",
"y	c #4C86C1",
"z	c #5AA9DB",
"A	c #4A9FD7",
"B	c #3893D4",
"C	c #3386C7",
"D	c #6D97BD",
"E	c #68B2E0",
"F	c #54A4DA",
"G	c #3691D3",
"H	c #3B76B1",
"I	c #76BBE2",
"J	c #5AA8DB",
"K	c #3484CA",
"L	c #698DAC",
"M	c #7DC4E8",
"N	c #5EA5DB",
"O	c #3F76B4",
"P	c #99B1C4",
"Q	c #82C3E5",
"R	c #6D99C6",
"S	c #809EB5",
"T	c #364D98",
"U	c #7895B1",
".    ",
"+@   ",
"#$%  ",
"&*=- ",
";>,' ",
")!~{]",
"^/(_:",
"<[}|1",
"23456",
"7890a",
"bbcde",
"fghij",
"klmno",
"pqrst",
"uvwxy",
"zABCD",
"EFGH ",
"IJKL ",
"MNOP ",
"QRS  ",
"TU   "};
