/* XPM */
static const char * rt_sep_on_xpm[] = {
"5 21 27 1",
" 	c None",
".	c #001177",
"+	c #C9DEEE",
"@	c #B0D0E8",
"#	c #0A6FAE",
"$	c #FFFFFF",
"%	c #C4DBED",
"&	c #98C2E0",
"*	c #80B5DA",
"=	c #6BAAD3",
"-	c #55A4D6",
";	c #459FD8",
">	c #379CDB",
",	c #3698D5",
"'	c #3999D5",
")	c #409DD7",
"!	c #4AA2D8",
"~	c #5AA9DB",
"{	c #68B3E0",
"]	c #68B4E0",
"^	c #7BBEE5",
"/	c #7CBEE5",
"(	c #8ACBE8",
"_	c #8ACCE8",
":	c #8CD1E9",
"<	c #8BD3E9",
"[	c #8AD5EE",
".....",
"++@#$",
"%%+#$",
"@@@#$",
"&&&#$",
"***#$",
"===#$",
"---#$",
";;;#$",
">>>#$",
",,,#$",
"'''#$",
")))#$",
"!!!#$",
"~~~#$",
"{{]#$",
"^^/#$",
"((_#$",
"::<#$",
"[[[#$",
"....."};
