/* XPM */
static const char * rt_sep_off_xpm[] = {
"5 21 42 1",
" 	c None",
".	c #5A5A5A",
"+	c #FAFAFA",
"@	c #F4F4F4",
"#	c #979797",
"$	c #E5E5E5",
"%	c #F9F9F9",
"&	c #EDEDED",
"*	c #E4E4E4",
"=	c #E3E3E3",
"-	c #929292",
";	c #D7D7D7",
">	c #E1E1E1",
",	c #CFCFCF",
"'	c #8F8F8F",
")	c #E0E0E0",
"!	c #C8C8C8",
"~	c #8C8C8C",
"{	c #DCDCDC",
"]	c #C2C2C2",
"^	c #8D8D8D",
"/	c #D8D8D8",
"(	c #BFBFBF",
"_	c #D4D4D4",
":	c #C1C1C1",
"<	c #D5D5D5",
"[	c #C5C5C5",
"}	c #919191",
"|	c #D6D6D6",
"1	c #CBCBCB",
"2	c #949494",
"3	c #D3D3D3",
"4	c #9B9B9B",
"5	c #A1A1A1",
"6	c #DADADA",
"7	c #A7A7A7",
"8	c #EAEAEA",
"9	c #AEAEAE",
"0	c #DDDDDD",
"a	c #EBEBEB",
"b	c #B0B0B0",
"c	c #AFAFAF",
".....",
"++@#$",
"%%+#$",
"@@@#$",
"&&&#*",
"===-=",
";;;->",
",,,')",
"!!!~{",
"]]]^/",
"(((^_",
":::'<",
"[[[}|",
"1112;",
"3334/",
"{{{56",
"**$7{",
"88890",
"aaab0",
"&&&c0",
"....."};
